<svg width="459.325" height="97.75" viewBox="-2 -2 459.325 97.75" xmlns="http://www.w3.org/2000/svg">
  <g id="agent" stroke-linecap="round" fill-rule="nonzero" fill="#000000" stroke="#000000" stroke-width="0.5">
    <path d="M22.875 32.475L24.825 32.250L7.950 72.750Q7.500 73.950 6.600 74.625Q5.700 75.300 4.575 75.300L4.575 75.300Q2.925 75.300 2.100 74.362Q1.275 73.425 1.200 72L1.200 72Q1.200 71.475 1.425 70.800L1.425 70.800L20.475 24.750Q21 23.475 22.012 22.800Q23.025 22.125 24.225 22.200L24.225 22.200Q25.350 22.200 26.325 22.875Q27.300 23.550 27.750 24.750L27.750 24.750L46.575 70.125Q46.875 70.875 46.875 71.625L46.875 71.625Q46.875 73.275 45.788 74.287Q44.700 75.300 43.350 75.300L43.350 75.300Q42.225 75.300 41.288 74.588Q40.350 73.875 39.900 72.750L39.900 72.750L22.875 32.475ZM36.825 62.100L10.950 62.100L14.325 54.900L35.550 54.900L36.825 62.100ZM69.825 34.650L69.825 34.650Q73.050 34.650 75.750 35.700Q78.450 36.750 80.438 38.363Q82.425 39.975 83.550 41.700Q84.675 43.425 84.675 44.700L84.675 44.700L82.950 44.775L82.950 38.775Q82.950 37.200 84 36.075Q85.050 34.950 86.700 34.950L86.700 34.950Q88.350 34.950 89.400 36.038Q90.450 37.125 90.450 38.775L90.450 38.775L90.450 71.850Q90.450 78.225 87.750 82.237Q85.050 86.250 80.588 88.125Q76.125 90 70.800 90L70.800 90Q68.925 90 66.375 89.513Q63.825 89.025 61.688 88.350Q59.550 87.675 58.725 87Q57 86.100 56.438 84.900Q55.875 83.700 56.400 82.500Q57.150 80.850 58.425 80.475Q59.700 80.100 61.350 80.700Q62.100 80.925 63.675 81.525Q65.250 82.125 67.200 82.612Q69.150 83.100 70.875 83.100Q76.875 83.100 79.912 80.325Q82.950 77.550 82.950 72.750L82.950 72.750L82.950 66L83.775 66.525Q83.550 68.100 82.387 69.713Q81.225 71.325 79.350 72.675Q77.475 74.025 75.037 74.888Q72.600 75.750 70.050 75.750L70.050 75.750Q64.725 75.750 60.525 73.088Q56.325 70.425 53.850 65.813Q51.375 61.200 51.375 55.200L51.375 55.200Q51.375 49.200 53.850 44.588Q56.325 39.975 60.487 37.313Q64.650 34.650 69.825 34.650ZM70.950 41.550L70.950 41.550Q67.275 41.550 64.500 43.350Q61.725 45.150 60.150 48.225Q58.575 51.300 58.575 55.200L58.575 55.200Q58.575 59.100 60.150 62.175Q61.725 65.250 64.500 67.050Q67.275 68.850 70.950 68.850L70.950 68.850Q74.625 68.850 77.400 67.088Q80.175 65.325 81.750 62.212Q83.325 59.100 83.325 55.200L83.325 55.200Q83.325 51.300 81.750 48.188Q80.175 45.075 77.400 43.313Q74.625 41.550 70.950 41.550ZM117.750 75.750L117.750 75.750Q111.525 75.750 106.950 73.162Q102.375 70.575 99.862 66.037Q97.350 61.500 97.350 55.650L97.350 55.650Q97.350 49.050 100.013 44.362Q102.675 39.675 106.950 37.163Q111.225 34.650 116.025 34.650L116.025 34.650Q119.700 34.650 123 36.113Q126.300 37.575 128.887 40.163Q131.475 42.750 132.975 46.237Q134.475 49.725 134.550 53.850L134.550 53.850Q134.475 55.350 133.350 56.325Q132.225 57.300 130.725 57.300L130.725 57.300L101.550 57.300L99.750 50.925L127.950 50.925L126.525 52.275L126.525 50.400Q126.375 47.775 124.800 45.788Q123.225 43.800 120.900 42.712Q118.575 41.625 116.025 41.625L116.025 41.625Q113.775 41.625 111.713 42.337Q109.650 43.050 108.037 44.625Q106.425 46.200 105.487 48.788Q104.550 51.375 104.550 55.200L104.550 55.200Q104.550 59.325 106.275 62.400Q108 65.475 110.925 67.162Q113.850 68.850 117.375 68.850L117.375 68.850Q120.150 68.850 121.950 68.287Q123.750 67.725 124.950 66.900Q126.150 66.075 127.050 65.325L127.050 65.325Q128.175 64.650 129.300 64.650L129.300 64.650Q130.650 64.650 131.550 65.588Q132.450 66.525 132.450 67.800L132.450 67.800Q132.450 69.450 130.800 70.800L130.800 70.800Q128.775 72.750 125.213 74.250Q121.650 75.750 117.750 75.750ZM163.350 34.650L163.350 34.650Q168.675 34.650 171.600 36.863Q174.525 39.075 175.688 42.788Q176.850 46.500 176.850 51.075L176.850 51.075L176.850 71.175Q176.850 72.825 175.762 73.912Q174.675 75 173.100 75L173.100 75Q171.450 75 170.400 73.912Q169.350 72.825 169.350 71.175L169.350 71.175L169.350 51.150Q169.350 48.450 168.600 46.313Q167.850 44.175 166.013 42.863Q164.175 41.550 160.875 41.550L160.875 41.550Q157.800 41.550 155.475 42.863Q153.150 44.175 151.838 46.313Q150.525 48.450 150.525 51.150L150.525 51.150L150.525 71.175Q150.525 72.825 149.438 73.912Q148.350 75 146.775 75L146.775 75Q145.125 75 144.075 73.912Q143.025 72.825 143.025 71.175L143.025 71.175L143.025 39.375Q143.025 37.725 144.075 36.638Q145.125 35.550 146.775 35.550L146.775 35.550Q148.350 35.550 149.438 36.638Q150.525 37.725 150.525 39.375L150.525 39.375L150.525 43.575L149.175 44.325Q149.700 42.675 151.013 40.988Q152.325 39.300 154.200 37.837Q156.075 36.375 158.400 35.513Q160.725 34.650 163.350 34.650ZM186.750 36L186.750 36L204.375 36Q205.875 36 206.888 37.013Q207.900 38.025 207.900 39.525L207.900 39.525Q207.900 40.950 206.888 41.925Q205.875 42.900 204.375 42.900L204.375 42.900L186.750 42.900Q185.250 42.900 184.238 41.888Q183.225 40.875 183.225 39.450L183.225 39.450Q183.225 37.950 184.238 36.975Q185.250 36 186.750 36ZM194.625 26.250L194.625 26.250Q196.275 26.250 197.325 27.337Q198.375 28.425 198.375 30.075L198.375 30.075L198.375 64.875Q198.375 66.225 198.825 67.050Q199.275 67.875 200.063 68.175Q200.850 68.475 201.675 68.475L201.675 68.475Q202.500 68.475 203.138 68.175Q203.775 67.875 204.675 67.875L204.675 67.875Q205.575 67.875 206.325 68.700Q207.075 69.525 207.075 70.950L207.075 70.950Q207.075 72.750 205.125 73.875Q203.175 75 200.925 75L200.925 75Q199.650 75 197.925 74.775Q196.200 74.550 194.588 73.650Q192.975 72.750 191.925 70.763Q190.875 68.775 190.875 65.175L190.875 65.175L190.875 30.075Q190.875 28.425 191.963 27.337Q193.050 26.250 194.625 26.250Z" />
  </g>
  <g id="bucket" transform="translate(210.975 0)" stroke-linecap="round" fill-rule="nonzero" fill="#2f72f1" stroke="#2f72f1" stroke-width="0.5">
    <path d="M9.900 22.500L29.100 22.500Q36 22.500 39.563 25.875Q43.125 29.250 43.125 35.700L43.125 35.700Q43.125 39.075 41.512 41.813Q39.900 44.550 36.788 46.125Q33.675 47.700 29.025 47.775L29.025 47.775L29.175 45Q31.650 45 34.538 45.675Q37.425 46.350 39.975 48Q42.525 49.650 44.175 52.463Q45.825 55.275 45.825 59.475L45.825 59.475Q45.825 64.050 44.325 67.088Q42.825 70.125 40.350 71.850Q37.875 73.575 34.913 74.287Q31.950 75 29.100 75L29.100 75L9.900 75Q8.325 75 7.200 73.912Q6.075 72.825 6.075 71.175L6.075 71.175L6.075 26.325Q6.075 24.675 7.200 23.587Q8.325 22.500 9.900 22.500L9.900 22.500ZM28.050 29.850L28.050 29.850L13.275 29.850L14.175 28.650L14.175 44.775L13.350 43.950L28.200 43.950Q30.900 43.875 32.962 42.113Q35.025 40.350 35.025 36.900L35.025 36.900Q35.025 33.375 33.150 31.613Q31.275 29.850 28.050 29.850ZM28.575 51.300L28.575 51.300L13.650 51.300L14.175 50.775L14.175 68.475L13.575 67.800L29.025 67.800Q32.925 67.800 35.325 65.737Q37.725 63.675 37.725 59.475L37.725 59.475Q37.725 55.950 36.300 54.225Q34.875 52.500 32.775 51.900Q30.675 51.300 28.575 51.300ZM83.700 35.550L83.700 35.550Q85.275 35.550 86.362 36.638Q87.450 37.725 87.450 39.375L87.450 39.375L87.450 59.100Q87.450 66.900 83.100 71.287Q78.750 75.675 70.800 75.675L70.800 75.675Q62.925 75.675 58.612 71.287Q54.300 66.900 54.300 59.100L54.300 59.100L54.300 39.375Q54.300 37.725 55.350 36.638Q56.400 35.550 58.050 35.550L58.050 35.550Q59.625 35.550 60.712 36.638Q61.800 37.725 61.800 39.375L61.800 39.375L61.800 59.100Q61.800 63.975 64.087 66.375Q66.375 68.775 70.800 68.775L70.800 68.775Q75.300 68.775 77.625 66.375Q79.950 63.975 79.950 59.100L79.950 59.100L79.950 39.375Q79.950 37.725 81 36.638Q82.050 35.550 83.700 35.550ZM115.350 34.650L115.350 34.650Q119.400 34.650 122.550 35.513Q125.700 36.375 127.463 37.913Q129.225 39.450 129.225 41.475L129.225 41.475Q129.225 42.750 128.475 43.838Q127.725 44.925 126.225 44.925L126.225 44.925Q125.175 44.925 124.463 44.550Q123.750 44.175 123.150 43.650Q122.550 43.125 121.650 42.600L121.650 42.600Q120.825 42.150 119.213 41.850Q117.600 41.550 116.325 41.550L116.325 41.550Q112.350 41.550 109.463 43.350Q106.575 45.150 104.963 48.225Q103.350 51.300 103.350 55.200L103.350 55.200Q103.350 59.100 104.963 62.175Q106.575 65.250 109.388 67.050Q112.200 68.850 115.950 68.850L115.950 68.850Q118.200 68.850 119.625 68.513Q121.050 68.175 122.100 67.650L122.100 67.650Q123.225 66.975 124.013 66.263Q124.800 65.550 126.225 65.550L126.225 65.550Q127.875 65.550 128.738 66.563Q129.600 67.575 129.600 69.075L129.600 69.075Q129.600 70.725 127.612 72.263Q125.625 73.800 122.325 74.775Q119.025 75.750 115.050 75.750L115.050 75.750Q109.200 75.750 104.888 73.050Q100.575 70.350 98.213 65.700Q95.850 61.050 95.850 55.200L95.850 55.200Q95.850 49.275 98.325 44.663Q100.800 40.050 105.225 37.350Q109.650 34.650 115.350 34.650ZM141.150 75L141.150 75Q139.575 75 138.488 73.912Q137.400 72.825 137.400 71.175L137.400 71.175L137.400 23.325Q137.400 21.675 138.488 20.587Q139.575 19.500 141.150 19.500L141.150 19.500Q142.800 19.500 143.850 20.587Q144.900 21.675 144.900 23.325L144.900 23.325L144.900 71.175Q144.900 72.825 143.850 73.912Q142.800 75 141.150 75ZM165.600 35.400L165.600 35.400Q167.025 35.400 168.075 36.600Q169.125 37.800 169.125 39L169.125 39Q169.125 40.500 167.700 41.775L167.700 41.775L144.225 62.775L143.925 54.150L162.825 36.600Q164.025 35.400 165.600 35.400ZM166.500 74.925L166.500 74.925Q164.925 74.925 163.800 73.650L163.800 73.650L148.800 57.825L154.500 52.575L169.125 68.400Q170.325 69.675 170.325 71.250L170.325 71.250Q170.325 72.900 169.013 73.912Q167.700 74.925 166.500 74.925ZM195.375 75.750L195.375 75.750Q189.150 75.750 184.575 73.162Q180 70.575 177.488 66.037Q174.975 61.500 174.975 55.650L174.975 55.650Q174.975 49.050 177.637 44.362Q180.300 39.675 184.575 37.163Q188.850 34.650 193.650 34.650L193.650 34.650Q197.325 34.650 200.625 36.113Q203.925 37.575 206.512 40.163Q209.100 42.750 210.600 46.237Q212.100 49.725 212.175 53.850L212.175 53.850Q212.100 55.350 210.975 56.325Q209.850 57.300 208.350 57.300L208.350 57.300L179.175 57.300L177.375 50.925L205.575 50.925L204.150 52.275L204.150 50.400Q204 47.775 202.425 45.788Q200.850 43.800 198.525 42.712Q196.200 41.625 193.650 41.625L193.650 41.625Q191.400 41.625 189.338 42.337Q187.275 43.050 185.662 44.625Q184.050 46.200 183.113 48.788Q182.175 51.375 182.175 55.200L182.175 55.200Q182.175 59.325 183.900 62.400Q185.625 65.475 188.550 67.162Q191.475 68.850 195 68.850L195 68.850Q197.775 68.850 199.575 68.287Q201.375 67.725 202.575 66.900Q203.775 66.075 204.675 65.325L204.675 65.325Q205.800 64.650 206.925 64.650L206.925 64.650Q208.275 64.650 209.175 65.588Q210.075 66.525 210.075 67.800L210.075 67.800Q210.075 69.450 208.425 70.800L208.425 70.800Q206.400 72.750 202.838 74.250Q199.275 75.750 195.375 75.750ZM220.125 36L220.125 36L237.750 36Q239.250 36 240.263 37.013Q241.275 38.025 241.275 39.525L241.275 39.525Q241.275 40.950 240.263 41.925Q239.250 42.900 237.750 42.900L237.750 42.900L220.125 42.900Q218.625 42.900 217.613 41.888Q216.600 40.875 216.600 39.450L216.600 39.450Q216.600 37.950 217.613 36.975Q218.625 36 220.125 36ZM228 26.250L228 26.250Q229.650 26.250 230.700 27.337Q231.750 28.425 231.750 30.075L231.750 30.075L231.750 64.875Q231.750 66.225 232.200 67.050Q232.650 67.875 233.438 68.175Q234.225 68.475 235.050 68.475L235.050 68.475Q235.875 68.475 236.513 68.175Q237.150 67.875 238.050 67.875L238.050 67.875Q238.950 67.875 239.700 68.700Q240.450 69.525 240.450 70.950L240.450 70.950Q240.450 72.750 238.500 73.875Q236.550 75 234.300 75L234.300 75Q233.025 75 231.300 74.775Q229.575 74.550 227.963 73.650Q226.350 72.750 225.300 70.763Q224.250 68.775 224.250 65.175L224.250 65.175L224.250 30.075Q224.250 28.425 225.338 27.337Q226.425 26.250 228 26.250Z" />
  </g>
</svg>
